<?xml version="1.0" standalone="no"?><!DOCTYPE svg PUBLIC "-//W3C//DTD SVG 1.1//EN" "http://www.w3.org/Graphics/SVG/1.1/DTD/svg11.dtd"><svg t="1541188183836" class="icon" style="" viewBox="0 0 1024 1024" version="1.1" xmlns="http://www.w3.org/2000/svg" p-id="2072" xmlns:xlink="http://www.w3.org/1999/xlink" width="200" height="200"><defs><style type="text/css"></style></defs><path d="M512 1024C229.23264 1024 0 794.76736 0 512S229.23264 0 512 0s512 229.23264 512 512-229.23264 512-512 512z m0-40.96c260.15744 0 471.04-210.88256 471.04-471.04S772.15744 40.96 512 40.96 40.96 251.84256 40.96 512s210.88256 471.04 471.04 471.04z m-131.97312-736.4608l371.75296 248.40192a20.48 20.48 0 0 1 0 34.03776l-371.75296 248.4224A20.48 20.48 0 0 1 348.16 760.40192V263.59808a20.48 20.48 0 0 1 31.86688-17.03936z" p-id="2073"></path></svg>